# File created by Blade
# Date/Time:  Tue Apr 07 20:22:14 2015
# Frame Rate: 120.000 fps
#------------------------------------------------------
:FULLY-SPECIFIED
:DEGREES
2249
root 1.213912 32.810192 -9.385322 17.725678 6.306766 -0.069070
Spine -13.146673 -6.175346 0.074219
Head -1.009280 -6.172388 2.126332
LeftShoulder -18.504659 45.295813 6.279631
LeftArm 50.305804 0.243809 -84.368069
LeftForeArm 21.161431 -0.000000 102.897834
LeftHand 3.042597 -0.000000 5.771986
LeftHandThumb1 -26.253704 0.000000 33.147579
RightShoulder -7.366478 -12.118797 -15.827280
RightArm 7.419355 1.441988 87.269784
RightForeArm -29.732470 0.000000 98.559812
RightHand -4.804947 -0.000000 17.321997
RightHandThumb1 -24.326973 -0.000000 -32.862282
LeftUpLeg -17.617099 -4.048210 1.805470
LeftLeg 3.078275 -0.000000 -0.000000
LeftFoot -5.752227 4.586195 -17.133081
LeftToeBase -5.646560 -0.000000 0.000000
RightUpLeg -11.845541 -6.359780 2.032318
RightLeg -4.145671 -0.000000 0.000000
RightFoot -5.548848 -7.548752 6.817277
RightToeBase 0.908967 -0.000000 -0.000000
2250
root 1.218136 32.803953 -9.408618 17.746785 6.270410 -0.036843
Spine -13.196202 -6.170145 0.016078
Head -0.855373 -6.135329 2.150844
LeftShoulder -18.587911 45.314708 6.177268
LeftArm 50.369314 0.142120 -84.412622
LeftForeArm 21.678367 -0.000000 102.754814
LeftHand 2.978974 -0.000000 5.599130
LeftHandThumb1 -26.253704 0.000000 33.147579
RightShoulder -7.437742 -12.153628 -15.737552
RightArm 7.519713 1.544975 87.394947
RightForeArm -30.130077 -0.000000 98.450684
RightHand -4.875638 -0.000000 17.386353
RightHandThumb1 -24.326973 -0.000000 -32.862282
LeftUpLeg -17.627493 -4.089647 1.732769
LeftLeg 3.005192 -0.000000 -0.000000
LeftFoot -5.857145 4.827201 -16.929387
LeftToeBase -5.447504 -0.000000 0.000000
RightUpLeg -11.896667 -6.487616 2.042810
RightLeg -4.143311 -0.000000 0.000000
RightFoot -5.713767 -7.470654 6.744888
RightToeBase 1.216412 -0.000000 -0.000000
2251
root 1.221734 32.802098 -9.432533 17.785822 6.185948 -0.026197
Spine -13.273351 -6.092428 -0.037062
Head -0.686375 -6.069022 2.165047
LeftShoulder -18.614366 45.296040 6.159564
LeftArm 50.342885 0.093395 -84.497992
LeftForeArm 22.126775 -0.000000 102.621542
LeftHand 2.830632 -0.000000 5.559190
LeftHandThumb1 -26.253704 0.000000 33.147579
RightShoulder -7.496281 -12.165799 -15.696583
RightArm 7.538917 1.628442 87.568720
RightForeArm -30.539144 -0.000000 98.337215
RightHand -4.996691 -0.000000 17.383890
RightHandThumb1 -24.326973 -0.000000 -32.862282
LeftUpLeg -17.647506 -4.140901 1.692338
LeftLeg 2.905743 -0.000000 -0.000000
LeftFoot -5.905546 5.108120 -16.765566
LeftToeBase -5.376853 -0.000000 0.000000
RightUpLeg -12.000711 -6.508645 2.048796
RightLeg -4.078842 -0.000000 0.000000
RightFoot -5.866971 -7.449538 6.757196
RightToeBase 1.445228 -0.000000 -0.000000
2252
root 1.227412 32.802640 -9.457088 17.814794 6.066915 0.000395
Spine -13.347999 -5.998461 -0.112897
Head -0.480225 -6.021288 2.162970
LeftShoulder -18.578970 45.258503 6.211608
LeftArm 50.222501 0.016141 -84.676051
LeftForeArm 22.502590 -0.000000 102.510012
LeftHand 2.838162 -0.000000 5.327308
LeftHandThumb1 -26.253704 0.000000 33.147579
RightShoulder -7.521310 -12.157507 -15.695127
RightArm 7.508786 1.715048 87.781396
RightForeArm -30.887267 0.000000 98.239679
RightHand -5.119618 -0.000000 17.523360
RightHandThumb1 -24.326973 -0.000000 -32.862282
LeftUpLeg -17.659103 -4.168025 1.625788
LeftLeg 2.815252 -0.000000 -0.000000
LeftFoot -5.924450 5.384089 -16.585665
LeftToeBase -5.280237 -0.000000 0.000000
RightUpLeg -12.121442 -6.507325 2.020800
RightLeg -3.970773 -0.000000 0.000000
RightFoot -6.018415 -7.406544 6.708821
RightToeBase 1.723397 -0.000000 -0.000000
2253
root 1.231843 32.805849 -9.480684 17.838761 5.933301 0.004659
Spine -13.418427 -5.910171 -0.166290
Head -0.293438 -5.948202 2.144497
LeftShoulder -18.610054 45.268507 6.230368
LeftArm 50.121847 0.001338 -84.846202
LeftForeArm 22.718585 -0.000000 102.415482
LeftHand 2.770059 0.000000 5.378397
LeftHandThumb1 -26.253704 0.000000 33.147579
RightShoulder -7.497105 -12.158660 -15.714196
RightArm 7.453104 1.927656 88.015079
RightForeArm -31.735454 0.000000 98.197354
RightHand -4.810735 0.000000 18.186876
RightHandThumb1 -24.326973 -0.000000 -32.862282
LeftUpLeg -17.678016 -4.170789 1.582109
LeftLeg 2.747182 -0.000000 -0.000000
LeftFoot -5.920357 5.631475 -16.433828
LeftToeBase -5.236925 -0.000000 0.000000
RightUpLeg -12.251982 -6.426186 1.994267
RightLeg -3.837369 -0.000000 0.000000
RightFoot -6.127113 -7.388541 6.737676
RightToeBase 1.560700 -0.000000 -0.000000
2254
root 1.237399 32.810399 -9.504816 17.832033 5.797983 0.004451
Spine -13.446597 -5.845522 -0.205292
Head -0.122849 -5.847536 2.116469
LeftShoulder -18.679314 45.262192 6.228104
LeftArm 49.976174 -0.013501 -85.043548
LeftForeArm 22.788057 -0.000000 102.346568
LeftHand 2.837401 -0.000000 5.340095
LeftHandThumb1 -26.253704 0.000000 33.147579
RightShoulder -7.447391 -12.165001 -15.754094
RightArm 7.411899 1.986435 88.225645
RightForeArm -32.128891 -0.000000 98.174341
RightHand -4.970601 0.000000 18.292772
RightHandThumb1 -24.326973 -0.000000 -32.862282
LeftUpLeg -17.668703 -4.220628 1.562763
LeftLeg 2.679023 -0.000000 -0.000000
LeftFoot -5.911131 5.884382 -16.338644
LeftToeBase -5.222420 -0.000000 0.000000
RightUpLeg -12.377803 -6.347184 1.961783
RightLeg -3.662460 -0.000000 0.000000
RightFoot -6.215815 -7.349465 6.711538
RightToeBase 1.643727 -0.000000 -0.000000
2255
root 1.240037 32.815376 -9.530419 17.813551 5.642258 -0.019139
Spine -13.462583 -5.750180 -0.230515
Head 0.047386 -5.759347 2.075664
LeftShoulder -18.694539 45.287619 6.261433
LeftArm 49.818945 -0.043174 -85.267813
LeftForeArm 22.643205 -0.000000 102.334263
LeftHand 2.772973 -0.000000 5.490902
LeftHandThumb1 -26.253704 0.000000 33.147579
RightShoulder -7.398889 -12.186728 -15.830413
RightArm 7.354025 1.992915 88.480433
RightForeArm -32.308286 -0.000000 98.157387
RightHand -5.263406 0.000000 18.181251
RightHandThumb1 -24.326973 -0.000000 -32.862282
LeftUpLeg -17.667356 -4.217019 1.560815
LeftLeg 2.648808 -0.000000 -0.000000
LeftFoot -5.912260 6.089082 -16.257307
LeftToeBase -5.228886 -0.000000 0.000000
RightUpLeg -12.473069 -6.128182 1.910538
RightLeg -3.535860 -0.000000 0.000000
RightFoot -6.267647 -7.383544 6.758637
RightToeBase 1.742383 -0.000000 -0.000000
